<svg xmlns="http://www.w3.org/2000/svg" xml:space="preserve" width="192" height="192" data-version="2">
    <path fill="#8eca28" d="M88.11 42.25q8.48 5.98 13.21 16.4 4.72 10.43 4.72 23.63 0 13.21-4.72 24.05-4.73 10.84-13.21 16.96-5.42 3.89-12.44 5.7-7.02 1.8-17.17 1.8H21.53v-1.11l11.4-1.11V37.11l-11.4-1.12v-1.11H58.5q18.91 0 29.61 7.37m-5 78.67q4.45-5.7 7.02-16.19 2.57-10.49 2.57-23.14 0-12.37-2.43-21.83-2.44-9.45-7.16-15.01-3.89-4.59-9.59-6.39-5.7-1.81-16.27-1.81H43.63v92.57h13.62q11.12 0 16.68-1.8 5.56-1.81 9.18-6.4" paint-order="stroke"/>
    <rect width="84.51" height="95.91" x="-42.255" y="-47.955" fill="none" rx="0" ry="0" transform="translate(64.285 83.335)"/>
    <path fill="#8eca28" d="m171.65 62.54-1.11.14-8.34-20.99q-1.25-3.19-2.71-4.17-1.46-.97-4.8-.97h-28.21v42.67h20.15q3.34 0 4.73-1.11 1.39-1.11 1.94-4.31l2.37-11.26h1.66v35.59h-1.66l-2.37-11.26q-.55-3.2-1.94-4.31-1.39-1.11-4.73-1.11h-20.15v47.12l13.62 1.11v1.11h-35.73v-1.11l11.4-1.11V37.11l-11.4-1.12v-1.11h65.06Z" paint-order="stroke"/>
    <rect width="67.28" height="95.91" x="-33.64" y="-47.955" fill="none" rx="0" ry="0" transform="translate(138.51 83.335)"/>
</svg>
